# xmcd
#
# Track frame offsets: 
#        150
#        11360
#        28416
#        53701
#        108776
#        139766
#        180123
#        217207
#        247992
#        264438
#
# Disc length: 3733 seconds
#
# Revision: 0
# Processed by: cddbd v1.5.2PL0 Copyright (c) Steve Scherf et al.
# Submitted via: ExactAudioCopy v0.95b3
#
DISCID=800e930a
DTITLE=Jimi Hendrix  - 3 Nights At Winterland 6 Cd Box Set - Disc 5 (2
DTITLE=006)  FLAC
DYEAR=1900
DGENRE=
TTITLE0=Intro
TTITLE1=Fire
TTITLE2=Lover Man
TTITLE3=Like A Rolling Stone
TTITLE4=Foxy Lady
TTITLE5=Drum\\Bass Jam
TTITLE6=Tax Free
TTITLE7=Hey Joe
TTITLE8=Purple Haze
TTITLE9=Wild Thing
EXTD=
EXTT0=
EXTT1=
EXTT2=
EXTT3=
EXTT4=
EXTT5=
EXTT6=
EXTT7=
EXTT8=
EXTT9=
PLAYORDER=
